<svg width="36" height="36" viewBox="0 0 36 36" fill="none" xmlns="http://www.w3.org/2000/svg">
<path d="M16.0301 31.9991C17.4359 31.9991 18.5755 30.8595 18.5755 29.4537C18.5755 28.0478 17.4359 26.9082 16.0301 26.9082C14.6243 26.9082 13.4846 28.0478 13.4846 29.4537C13.4846 30.8595 14.6243 31.9991 16.0301 31.9991Z" stroke="black" stroke-width="2"/>
<path d="M27.909 31.9991C29.3148 31.9991 30.4544 30.8595 30.4544 29.4537C30.4544 28.0478 29.3148 26.9082 27.909 26.9082C26.5032 26.9082 25.3635 28.0478 25.3635 29.4537C25.3635 30.8595 26.5032 31.9991 27.909 31.9991Z" stroke="black" stroke-width="2"/>
<path d="M5 4H8.39395L14.3401 22.6667H27.9091" stroke="black" stroke-width="2" stroke-linecap="round" stroke-linejoin="round"/>
<path d="M13.0164 18.426L9.75146 8.24414H30.9755C31.11 8.24397 31.2427 8.27579 31.3625 8.33697C31.4823 8.39815 31.5858 8.48693 31.6645 8.596C31.7433 8.70507 31.7949 8.83129 31.8153 8.96426C31.8356 9.09723 31.8241 9.23313 31.7816 9.36075L28.9527 17.8456C28.8965 18.0145 28.7885 18.1614 28.6442 18.2656C28.4998 18.3697 28.3264 18.4258 28.1484 18.426H13.0164Z" stroke="black" stroke-width="2" stroke-linecap="round" stroke-linejoin="round"/>
</svg>
