<svg width="189" height="36" viewBox="0 0 189 36" fill="none" xmlns="http://www.w3.org/2000/svg">
<path d="M29.5678 13.3945V14.1085L25.4658 23.1945H24.3738L28.4058 14.2905H23.3658V16.1245H22.3718V13.3945H29.5678Z" fill="black"/>
<path d="M21.2992 11.4062H22.2092L17.5892 24.5943H16.6792L21.2992 11.4062Z" fill="black"/>
<path d="M16.435 20.6185H14.475V23.1945H13.467V20.6185H7.93701V19.8905L13.131 13.3945H14.251L9.23901 19.7225H13.495V17.4545H14.475V19.7225H16.435V20.6185Z" fill="black"/>
<path d="M7.168 22.2985V23.1945H0.294V22.4805L4.368 18.4905C4.88133 17.9865 5.22667 17.5525 5.404 17.1885C5.59067 16.8152 5.684 16.4419 5.684 16.0685C5.684 15.4899 5.48333 15.0419 5.082 14.7245C4.69 14.3979 4.12533 14.2345 3.388 14.2345C2.24 14.2345 1.34867 14.5985 0.714 15.3265L0 14.7105C0.382667 14.2625 0.868 13.9172 1.456 13.6745C2.05333 13.4319 2.72533 13.3105 3.472 13.3105C4.47067 13.3105 5.25933 13.5485 5.838 14.0245C6.426 14.4912 6.72 15.1352 6.72 15.9565C6.72 16.4605 6.608 16.9459 6.384 17.4125C6.16 17.8792 5.73533 18.4159 5.11 19.0225L1.778 22.2985H7.168Z" fill="black"/>
<path fill-rule="evenodd" clip-rule="evenodd" d="M55.5679 3C47.2836 3 40.5679 9.71573 40.5679 18C40.5679 26.2843 47.2836 33 55.5679 33C63.8521 33 70.5679 26.2843 70.5679 18C70.5679 9.71573 63.8521 3 55.5679 3ZM38.5679 18C38.5679 8.61116 46.179 1 55.5679 1C64.9567 1 72.5679 8.61116 72.5679 18C72.5679 27.3888 64.9567 35 55.5679 35C46.179 35 38.5679 27.3888 38.5679 18Z" fill="black"/>
<path fill-rule="evenodd" clip-rule="evenodd" d="M61.932 11.6368C62.3225 12.0273 62.3225 12.6605 61.932 13.051L56.2751 18.7079C55.8846 19.0984 55.2514 19.0984 54.8609 18.7079C54.4704 18.3173 54.4704 17.6842 54.8609 17.2936L60.5177 11.6368C60.9083 11.2463 61.5414 11.2463 61.932 11.6368Z" fill="black"/>
<path fill-rule="evenodd" clip-rule="evenodd" d="M50.6183 13.0507C51.0088 12.6602 51.642 12.6602 52.0325 13.0508L56.275 17.2935C56.6655 17.684 56.6655 18.3172 56.275 18.7077C55.8844 19.0982 55.2513 19.0982 54.8608 18.7077L50.6182 14.4649C50.2277 14.0744 50.2277 13.4412 50.6183 13.0507Z" fill="black"/>
<path d="M44.5679 18C44.5679 18.5523 44.1202 19 43.5679 19C43.0156 19 42.5679 18.5523 42.5679 18C42.5679 17.4477 43.0156 17 43.5679 17C44.1202 17 44.5679 17.4477 44.5679 18Z" fill="black"/>
<path d="M68.5679 18C68.5679 18.5523 68.1202 19 67.5679 19C67.0156 19 66.5679 18.5523 66.5679 18C66.5679 17.4477 67.0156 17 67.5679 17C68.1202 17 68.5679 17.4477 68.5679 18Z" fill="black"/>
<path d="M46.0416 12.5008C45.7655 12.9791 45.1539 13.143 44.6756 12.8668C44.1973 12.5907 44.0334 11.9791 44.3096 11.5008C44.5857 11.0225 45.1973 10.8586 45.6756 11.1348C46.1539 11.4109 46.3178 12.0225 46.0416 12.5008Z" fill="black"/>
<path d="M66.8263 24.5008C66.5501 24.9791 65.9386 25.143 65.4603 24.8668C64.982 24.5907 64.8181 23.9791 65.0942 23.5008C65.3704 23.0225 65.982 22.8586 66.4603 23.1348C66.9386 23.4109 67.1024 24.0225 66.8263 24.5008Z" fill="black"/>
<path d="M50.0678 8.47424C49.5895 8.75038 48.9779 8.58651 48.7018 8.10821C48.4256 7.62992 48.5895 7.01833 49.0678 6.74219C49.5461 6.46605 50.1577 6.62992 50.4338 7.10821C50.71 7.58651 50.5461 8.1981 50.0678 8.47424Z" fill="black"/>
<path d="M62.0678 29.2594C61.5895 29.5355 60.9779 29.3717 60.7018 28.8934C60.4256 28.4151 60.5895 27.8035 61.0678 27.5273C61.5461 27.2512 62.1577 27.4151 62.4338 27.8934C62.71 28.3717 62.5461 28.9833 62.0678 29.2594Z" fill="black"/>
<path d="M61.0681 8.47424C60.5898 8.1981 60.4259 7.58651 60.702 7.10821C60.9782 6.62992 61.5898 6.46605 62.0681 6.74219C62.5463 7.01833 62.7102 7.62992 62.4341 8.10821C62.1579 8.58651 61.5463 8.75038 61.0681 8.47424Z" fill="black"/>
<path d="M49.0681 29.2594C48.5898 28.9833 48.4259 28.3717 48.702 27.8934C48.9782 27.4151 49.5898 27.2512 50.0681 27.5273C50.5463 27.8035 50.7102 28.4151 50.4341 28.8934C50.1579 29.3717 49.5463 29.5355 49.0681 29.2594Z" fill="black"/>
<path d="M65.0944 12.5012C64.8182 12.0229 64.9821 11.4113 65.4604 11.1351C65.9387 10.859 66.5503 11.0229 66.8264 11.5012C67.1026 11.9795 66.9387 12.591 66.4604 12.8672C65.9821 13.1433 65.3705 12.9795 65.0944 12.5012Z" fill="black"/>
<path d="M44.3097 24.5012C44.0336 24.0229 44.1974 23.4113 44.6757 23.1351C45.154 22.859 45.7656 23.0229 46.0417 23.5012C46.3179 23.9795 46.154 24.591 45.6757 24.8672C45.1974 25.1433 44.5858 24.9795 44.3097 24.5012Z" fill="black"/>
<path fill-rule="evenodd" clip-rule="evenodd" d="M54.5679 6C54.5679 5.44772 55.0156 5 55.5679 5C62.7476 5 68.5679 10.8203 68.5679 18C68.5679 25.1797 62.7476 31 55.5679 31C55.0156 31 54.5679 30.5523 54.5679 30C54.5679 29.4477 55.0156 29 55.5679 29C61.643 29 66.5679 24.0751 66.5679 18C66.5679 11.9249 61.643 7 55.5679 7C55.0156 7 54.5679 6.55228 54.5679 6Z" fill="black"/>
<path d="M188.711 14.4355L185.029 22.6815C184.73 23.3722 184.385 23.8622 183.993 24.1515C183.601 24.4409 183.13 24.5855 182.579 24.5855C182.224 24.5855 181.893 24.5295 181.585 24.4175C181.277 24.3055 181.011 24.1375 180.787 23.9135L181.249 23.1715C181.622 23.5449 182.07 23.7315 182.593 23.7315C182.929 23.7315 183.214 23.6382 183.447 23.4515C183.69 23.2649 183.914 22.9475 184.119 22.4995L184.441 21.7855L181.151 14.4355H182.187L184.959 20.6935L187.731 14.4355H188.711Z" fill="black"/>
<path d="M177.651 15.8789C177.884 15.3842 178.23 15.0109 178.687 14.7589C179.154 14.5069 179.728 14.3809 180.409 14.3809V15.3469L180.171 15.3329C179.396 15.3329 178.79 15.5709 178.351 16.0469C177.912 16.5229 177.693 17.1902 177.693 18.0489V21.8009H176.699V14.4369H177.651V15.8789Z" fill="black"/>
<path d="M174.662 18.4269H168.502C168.558 19.1922 168.852 19.8129 169.384 20.2889C169.916 20.7555 170.588 20.9889 171.4 20.9889C171.857 20.9889 172.277 20.9095 172.66 20.7509C173.042 20.5829 173.374 20.3402 173.654 20.0229L174.214 20.6669C173.887 21.0589 173.476 21.3575 172.982 21.5629C172.496 21.7682 171.96 21.8709 171.372 21.8709C170.616 21.8709 169.944 21.7122 169.356 21.3949C168.777 21.0682 168.324 20.6202 167.998 20.0509C167.671 19.4815 167.508 18.8375 167.508 18.1189C167.508 17.4002 167.662 16.7562 167.97 16.1869C168.287 15.6175 168.716 15.1742 169.258 14.8569C169.808 14.5395 170.424 14.3809 171.106 14.3809C171.787 14.3809 172.398 14.5395 172.94 14.8569C173.481 15.1742 173.906 15.6175 174.214 16.1869C174.522 16.7469 174.676 17.3909 174.676 18.1189L174.662 18.4269ZM171.106 15.2349C170.396 15.2349 169.799 15.4635 169.314 15.9209C168.838 16.3689 168.567 16.9569 168.502 17.6849H173.724C173.658 16.9569 173.383 16.3689 172.898 15.9209C172.422 15.4635 171.824 15.2349 171.106 15.2349Z" fill="black"/>
<path d="M167.055 14.4355L163.779 21.7995H162.757L159.495 14.4355H160.531L163.289 20.7075L166.075 14.4355H167.055Z" fill="black"/>
<path d="M157.107 14.4361H158.101V21.8001H157.107V14.4361ZM157.611 12.8261C157.406 12.8261 157.233 12.7561 157.093 12.6161C156.953 12.4761 156.883 12.3081 156.883 12.1121C156.883 11.9254 156.953 11.7621 157.093 11.6221C157.233 11.4821 157.406 11.4121 157.611 11.4121C157.816 11.4121 157.989 11.4821 158.129 11.6221C158.269 11.7528 158.339 11.9114 158.339 12.0981C158.339 12.3034 158.269 12.4761 158.129 12.6161C157.989 12.7561 157.816 12.8261 157.611 12.8261Z" fill="black"/>
<path d="M153.347 11.4121H154.341V21.8001H153.347V11.4121Z" fill="black"/>
<path d="M151.31 18.4269H145.15C145.206 19.1922 145.5 19.8129 146.032 20.2889C146.564 20.7555 147.236 20.9889 148.048 20.9889C148.506 20.9889 148.926 20.9095 149.308 20.7509C149.691 20.5829 150.022 20.3402 150.302 20.0229L150.862 20.6669C150.536 21.0589 150.125 21.3575 149.63 21.5629C149.145 21.7682 148.608 21.8709 148.02 21.8709C147.264 21.8709 146.592 21.7122 146.004 21.3949C145.426 21.0682 144.973 20.6202 144.646 20.0509C144.32 19.4815 144.156 18.8375 144.156 18.1189C144.156 17.4002 144.31 16.7562 144.618 16.1869C144.936 15.6175 145.365 15.1742 145.906 14.8569C146.457 14.5395 147.073 14.3809 147.754 14.3809C148.436 14.3809 149.047 14.5395 149.588 14.8569C150.13 15.1742 150.554 15.6175 150.862 16.1869C151.17 16.7469 151.324 17.3909 151.324 18.1189L151.31 18.4269ZM147.754 15.2349C147.045 15.2349 146.448 15.4635 145.962 15.9209C145.486 16.3689 145.216 16.9569 145.15 17.6849H150.372C150.307 16.9569 150.032 16.3689 149.546 15.9209C149.07 15.4635 148.473 15.2349 147.754 15.2349Z" fill="black"/>
<path d="M142.13 11.4121V21.8001H141.178V20.3441C140.879 20.8388 140.483 21.2168 139.988 21.4781C139.503 21.7394 138.952 21.8701 138.336 21.8701C137.645 21.8701 137.02 21.7114 136.46 21.3941C135.9 21.0768 135.461 20.6334 135.144 20.0641C134.827 19.4948 134.668 18.8461 134.668 18.1181C134.668 17.3901 134.827 16.7414 135.144 16.1721C135.461 15.6028 135.9 15.1641 136.46 14.8561C137.02 14.5388 137.645 14.3801 138.336 14.3801C138.933 14.3801 139.47 14.5061 139.946 14.7581C140.431 15.0008 140.828 15.3601 141.136 15.8361V11.4121H142.13ZM138.42 20.9881C138.933 20.9881 139.395 20.8714 139.806 20.6381C140.226 20.3954 140.553 20.0548 140.786 19.6161C141.029 19.1774 141.15 18.6781 141.15 18.1181C141.15 17.5581 141.029 17.0588 140.786 16.6201C140.553 16.1814 140.226 15.8454 139.806 15.6121C139.395 15.3694 138.933 15.2481 138.42 15.2481C137.897 15.2481 137.426 15.3694 137.006 15.6121C136.595 15.8454 136.269 16.1814 136.026 16.6201C135.793 17.0588 135.676 17.5581 135.676 18.1181C135.676 18.6781 135.793 19.1774 136.026 19.6161C136.269 20.0548 136.595 20.3954 137.006 20.6381C137.426 20.8714 137.897 20.9881 138.42 20.9881Z" fill="black"/>
<path d="M126.023 14.3809C126.947 14.3809 127.68 14.6515 128.221 15.1929C128.772 15.7249 129.047 16.5042 129.047 17.5309V21.8009H128.053V17.6289C128.053 16.8635 127.862 16.2802 127.479 15.8789C127.097 15.4775 126.551 15.2769 125.841 15.2769C125.048 15.2769 124.418 15.5149 123.951 15.9909C123.494 16.4575 123.265 17.1062 123.265 17.9369V21.8009H122.271V14.4369H123.223V15.7949C123.494 15.3469 123.867 15.0015 124.343 14.7589C124.829 14.5069 125.389 14.3809 126.023 14.3809Z" fill="black"/>
<path d="M118.511 14.4361H119.505V21.8001H118.511V14.4361ZM119.015 12.8261C118.81 12.8261 118.637 12.7561 118.497 12.6161C118.357 12.4761 118.287 12.3081 118.287 12.1121C118.287 11.9254 118.357 11.7621 118.497 11.6221C118.637 11.4821 118.81 11.4121 119.015 11.4121C119.221 11.4121 119.393 11.4821 119.533 11.6221C119.673 11.7528 119.743 11.9114 119.743 12.0981C119.743 12.3034 119.673 12.4761 119.533 12.6161C119.393 12.7561 119.221 12.8261 119.015 12.8261Z" fill="black"/>
<path d="M112.848 14.3809C113.772 14.3809 114.495 14.6469 115.018 15.1789C115.55 15.7109 115.816 16.4949 115.816 17.5309V21.8009H114.822V17.6289C114.822 16.8635 114.635 16.2802 114.262 15.8789C113.898 15.4775 113.38 15.2769 112.708 15.2769C111.942 15.2769 111.34 15.5149 110.902 15.9909C110.463 16.4575 110.244 17.1062 110.244 17.9369V21.8009H109.25V17.6289C109.25 16.8635 109.063 16.2802 108.69 15.8789C108.326 15.4775 107.803 15.2769 107.122 15.2769C106.366 15.2769 105.764 15.5149 105.316 15.9909C104.877 16.4575 104.658 17.1062 104.658 17.9369V21.8009H103.664V14.4369H104.616V15.7809C104.877 15.3329 105.241 14.9875 105.708 14.7449C106.174 14.5022 106.711 14.3809 107.318 14.3809C107.934 14.3809 108.466 14.5115 108.914 14.7729C109.371 15.0342 109.712 15.4215 109.936 15.9349C110.206 15.4495 110.594 15.0715 111.098 14.8009C111.611 14.5209 112.194 14.3809 112.848 14.3809Z" fill="black"/>
<path d="M93.9783 21.884C93.2223 21.884 92.5456 21.6834 91.9483 21.282C91.3603 20.8807 90.8983 20.3067 90.5623 19.56C90.2356 18.804 90.0723 17.9173 90.0723 16.9C90.0723 15.8827 90.2356 15.0007 90.5623 14.254C90.8983 13.498 91.3603 12.9193 91.9483 12.518C92.5456 12.1167 93.2223 11.916 93.9783 11.916C94.7343 11.916 95.4063 12.1167 95.9943 12.518C96.5916 12.9193 97.0583 13.498 97.3943 14.254C97.7303 15.0007 97.8983 15.8827 97.8983 16.9C97.8983 17.9173 97.7303 18.804 97.3943 19.56C97.0583 20.3067 96.5916 20.8807 95.9943 21.282C95.4063 21.6834 94.7343 21.884 93.9783 21.884ZM93.9783 20.96C94.5476 20.96 95.0469 20.8013 95.4763 20.484C95.9149 20.1667 96.2556 19.7047 96.4983 19.098C96.7409 18.4913 96.8623 17.7587 96.8623 16.9C96.8623 16.0413 96.7409 15.3087 96.4983 14.702C96.2556 14.0953 95.9149 13.6333 95.4763 13.316C95.0469 12.9987 94.5476 12.84 93.9783 12.84C93.4089 12.84 92.9049 12.9987 92.4663 13.316C92.0369 13.6333 91.7009 14.0953 91.4583 14.702C91.2156 15.3087 91.0943 16.0413 91.0943 16.9C91.0943 17.7587 91.2156 18.4913 91.4583 19.098C91.7009 19.7047 92.0369 20.1667 92.4663 20.484C92.9049 20.8013 93.4089 20.96 93.9783 20.96Z" fill="black"/>
<path d="M85.5019 16.2C86.5285 16.256 87.3079 16.536 87.8399 17.04C88.3812 17.5347 88.6519 18.1833 88.6519 18.986C88.6519 19.546 88.5165 20.0453 88.2459 20.484C87.9752 20.9133 87.5739 21.254 87.0419 21.506C86.5099 21.758 85.8612 21.884 85.0959 21.884C84.3865 21.884 83.7145 21.772 83.0799 21.548C82.4545 21.3147 81.9505 21.0067 81.5679 20.624L82.0579 19.826C82.3845 20.162 82.8185 20.4373 83.3599 20.652C83.9012 20.8573 84.4799 20.96 85.0959 20.96C85.8985 20.96 86.5192 20.7873 86.9579 20.442C87.3965 20.0873 87.6159 19.602 87.6159 18.986C87.6159 18.3793 87.3965 17.9033 86.9579 17.558C86.5192 17.2127 85.8565 17.04 84.9699 17.04H84.2699V16.298L86.9859 12.896H81.9739V12H88.2739V12.714L85.5019 16.2Z" fill="black"/>
</svg>
