<svg width="164" height="50" viewBox="0 0 164 50" fill="none" xmlns="http://www.w3.org/2000/svg">
<path d="M86.5563 10.7673L85.8006 8.12229C85.7213 7.84472 85.9297 7.56842 86.2183 7.56842C86.4583 7.56842 86.6528 7.37389 86.6528 7.13392V3.52632C86.6528 2.13107 85.5218 1 84.1265 1H80.0844C78.6892 1 77.5581 2.13107 77.5581 3.52632V7.13392C77.5581 7.37389 77.7526 7.56842 77.9926 7.56842C78.2813 7.56842 78.4897 7.84472 78.4104 8.12229L77.6547 10.7673C77.5906 10.9915 77.5581 11.2236 77.5581 11.4567V13.6316H86.6528V11.4567C86.6528 11.2236 86.6203 10.9915 86.5563 10.7673Z" fill="black"/>
<path fill-rule="evenodd" clip-rule="evenodd" d="M80.0842 1.5C78.9651 1.5 78.0579 2.40721 78.0579 3.52632V7.07064C78.6443 7.11065 79.0554 7.68388 78.8909 8.25965L78.1352 10.9047C78.0839 11.0842 78.0579 11.27 78.0579 11.4567V13.1316H86.1526V11.4567C86.1526 11.27 86.1266 11.0842 86.0753 10.9047L85.3196 8.25965C85.1551 7.68388 85.5662 7.11065 86.1526 7.07064V3.52632C86.1526 2.40721 85.2454 1.5 84.1263 1.5H80.0842ZM86.1526 14.1316H78.0579V16.0859C78.0579 17.0866 77.5632 18.0226 76.7364 18.5863L73.3848 20.8715C72.8312 21.2489 72.5 21.8756 72.5 22.5457V46.4737C72.5 47.5928 73.4072 48.5 74.5263 48.5H89.6842C90.8033 48.5 91.7105 47.5928 91.7105 46.4737V22.5457C91.7105 21.8756 91.3793 21.2489 90.8257 20.8715L87.4741 18.5863C86.6473 18.0226 86.1526 17.0866 86.1526 16.0859V14.1316ZM77.0579 3.52632C77.0579 1.85493 78.4128 0.5 80.0842 0.5H84.1263C85.7977 0.5 87.1526 1.85493 87.1526 3.52632V7.13392C87.1526 7.62113 86.7798 8.02126 86.3039 8.06454L87.0368 10.63C87.1137 10.8988 87.1526 11.1771 87.1526 11.4567V16.0859C87.1526 16.7559 87.4839 17.3826 88.0375 17.7601L91.389 20.0452C92.2158 20.609 92.7105 21.545 92.7105 22.5457V46.4737C92.7105 48.1451 91.3556 49.5 89.6842 49.5H74.5263C72.8549 49.5 71.5 48.1451 71.5 46.4737V22.5457C71.5 21.545 71.9947 20.609 72.8215 20.0452L76.1731 17.7601C76.7267 17.3826 77.0579 16.7559 77.0579 16.0859V11.4567C77.0579 11.1771 77.0969 10.8988 77.1737 10.63L77.9067 8.06454C77.4307 8.02126 77.0579 7.62113 77.0579 7.13392V3.52632ZM86.2811 7.98492C86.2811 7.98485 86.2811 7.985 86.2811 7.98492Z" fill="black"/>
<path fill-rule="evenodd" clip-rule="evenodd" d="M72 23.7383H92.2105V43.9488H72V23.7383ZM82.1052 27.5287L81.2392 29.0287L76.4077 37.3971L75.5417 38.8971H77.2737H86.9367H88.6688L87.8027 37.3971L82.9712 29.0287L82.1052 27.5287ZM79.4658 35.1002L78.1397 37.3971H86.0707L84.7446 35.1002H79.4658ZM80.3319 33.6002H83.8786L82.1052 30.5287L80.3319 33.6002Z" fill="black"/>
<path fill-rule="evenodd" clip-rule="evenodd" d="M95 35V22.5457C95 20.732 94.113 19.0232 92.6104 17.9879L90.9083 20.4583L92.6104 17.9879L89.5 15.8449V15H164V35H95ZM69 35H0V15H74.5V15.8449L71.3896 17.9879C69.887 19.0232 69 20.7319 69 22.5457V35ZM15.0067 27.821H8.37666L6.94866 31H5.63966L11.0797 19.1H12.3207L17.7607 31H16.4347L15.0067 27.821ZM14.5477 26.801L11.6917 20.409L8.83566 26.801H14.5477ZM23.1292 19.1H24.3872V29.912H31.0512V31H23.1292V19.1ZM41.4755 31.102C40.2969 31.102 39.2315 30.8413 38.2795 30.32C37.3389 29.7987 36.5965 29.079 36.0525 28.161C35.5199 27.2317 35.2535 26.1947 35.2535 25.05C35.2535 23.9053 35.5199 22.874 36.0525 21.956C36.5965 21.0267 37.3445 20.3013 38.2965 19.78C39.2485 19.2587 40.3139 18.998 41.4925 18.998C42.3765 18.998 43.1925 19.1453 43.9405 19.44C44.6885 19.7347 45.3232 20.1653 45.8445 20.732L45.0455 21.531C44.1162 20.5903 42.9432 20.12 41.5265 20.12C40.5859 20.12 39.7302 20.3353 38.9595 20.766C38.1889 21.1967 37.5825 21.786 37.1405 22.534C36.7099 23.282 36.4945 24.1207 36.4945 25.05C36.4945 25.9793 36.7099 26.818 37.1405 27.566C37.5825 28.314 38.1889 28.9033 38.9595 29.334C39.7302 29.7647 40.5859 29.98 41.5265 29.98C42.9545 29.98 44.1275 29.504 45.0455 28.552L45.8445 29.351C45.3232 29.9177 44.6829 30.354 43.9235 30.66C43.1755 30.9547 42.3595 31.102 41.4755 31.102ZM56.8793 31.102C55.7006 31.102 54.6296 30.8413 53.6663 30.32C52.7143 29.7873 51.9663 29.062 51.4223 28.144C50.8896 27.226 50.6233 26.1947 50.6233 25.05C50.6233 23.9053 50.8896 22.874 51.4223 21.956C51.9663 21.038 52.7143 20.3183 53.6663 19.797C54.6296 19.2643 55.7006 18.998 56.8793 18.998C58.0579 18.998 59.1176 19.2587 60.0583 19.78C61.0103 20.3013 61.7583 21.0267 62.3023 21.956C62.8463 22.874 63.1183 23.9053 63.1183 25.05C63.1183 26.1947 62.8463 27.2317 62.3023 28.161C61.7583 29.079 61.0103 29.7987 60.0583 30.32C59.1176 30.8413 58.0579 31.102 56.8793 31.102ZM56.8793 29.98C57.8199 29.98 58.6699 29.7703 59.4293 29.351C60.1886 28.9203 60.7836 28.331 61.2143 27.583C61.6449 26.8237 61.8603 25.9793 61.8603 25.05C61.8603 24.1207 61.6449 23.282 61.2143 22.534C60.7836 21.7747 60.1886 21.1853 59.4293 20.766C58.6699 20.3353 57.8199 20.12 56.8793 20.12C55.9386 20.12 55.0829 20.3353 54.3123 20.766C53.5529 21.1853 52.9523 21.7747 52.5103 22.534C52.0796 23.282 51.8643 24.1207 51.8643 25.05C51.8643 25.9793 52.0796 26.8237 52.5103 27.583C52.9523 28.331 53.5529 28.9203 54.3123 29.351C55.0829 29.7703 55.9386 29.98 56.8793 29.98ZM103.196 19.1H101.938V31H109.86V29.912H103.196V19.1ZM119.327 19.1H118.069V31H119.327V19.1ZM138.227 31H139.264V19.1H138.023V28.756L130.356 19.1H129.319V31H130.577V21.344L138.227 31ZM157.683 31V29.912H150.526V25.492H156.68V24.421H150.526V20.188H157.428V19.1H149.268V31H157.683Z" fill="black"/>
</svg>
